<?xml version="1.0" encoding="UTF-8" standalone="no"?>
<svg
   xmlns:dc="http://purl.org/dc/elements/1.1/"
   xmlns:cc="http://creativecommons.org/ns#"
   xmlns:rdf="http://www.w3.org/1999/02/22-rdf-syntax-ns#"
   xmlns:svg="http://www.w3.org/2000/svg"
   xmlns="http://www.w3.org/2000/svg"
   xmlns:sodipodi="http://sodipodi.sourceforge.net/DTD/sodipodi-0.dtd"
   xmlns:inkscape="http://www.inkscape.org/namespaces/inkscape"
   width="42.568916"
   height="49.220421"
   viewBox="0 0 51.200402 59.064505"
   version="1.1"
   id="svg893"
   sodipodi:docname="wmg-header-logo.svg"
   inkscape:version="0.92.2 2405546, 2018-03-11">
  <metadata
     id="metadata897">
    <rdf:RDF>
      <cc:Work
         rdf:about="">
        <dc:format>image/svg+xml</dc:format>
        <dc:type
           rdf:resource="http://purl.org/dc/dcmitype/StillImage" />
      </cc:Work>
    </rdf:RDF>
  </metadata>
  <sodipodi:namedview
     pagecolor="#ffffff"
     bordercolor="#666666"
     borderopacity="1"
     objecttolerance="10"
     gridtolerance="10"
     guidetolerance="10"
     inkscape:pageopacity="0"
     inkscape:pageshadow="2"
     inkscape:window-width="1276"
     inkscape:window-height="977"
     id="namedview895"
     showgrid="false"
     inkscape:zoom="3.4930876"
     inkscape:cx="107.83536"
     inkscape:cy="24.942362"
     inkscape:window-x="3840"
     inkscape:window-y="22"
     inkscape:window-maximized="0"
     inkscape:current-layer="svg893" />
  <!-- Generator: Sketch 3.8.3 (29802) - http://www.bohemiancoding.com/sketch -->
  <title
     id="title876">Group 9</title>
  <desc
     id="desc878">Created with Sketch.</desc>
  <defs
     id="defs880" />
  <g
     id="Tablet"
     style="fill:none;fill-rule:evenodd;stroke:none;stroke-width:1"
     transform="translate(-0.7994,-0.86832442)">
    <g
       id="iPad-Portrait-Copy"
       transform="translate(-15,-7)"
       style="fill:#3f4854">
      <g
         id="Group-9"
         transform="translate(15,7)">
        <g
           id="noun_235227">
          <g
             id="Group">
            <path
               d="m 44.5016,16.2984 c -4.252,-4.252 -9.628,-6.688 -15.1712,-7.324 -0.8624,-1.2472 -0.744,-2.9672 0.3664,-4.0776 0.9376,-0.9376 0.9376,-2.4568 0,-3.3944 -0.9376,-0.9376 -2.4568,-0.9376 -3.3944,0 -2.008,2.008 -2.7184,4.8176 -2.144,7.3992 -5.7856,0.5056 -11.4328,2.968 -15.8608,7.396 -9.9976,9.9976 -9.9976,26.2064 0,36.204 9.9976,9.9976 26.2064,9.9976 36.204,0 9.9976,-9.9968 9.9976,-26.2064 0,-36.2032 z m -4.5248,31.6784 c -7.4984,7.4984 -19.6552,7.4984 -27.1528,0 -7.4984,-7.4984 -7.4984,-19.6552 0,-27.1528 7.4984,-7.4984 19.6552,-7.4984 27.1528,0 7.4976,7.4976 7.4976,19.6544 0,27.1528 z"
               id="Shape"
               inkscape:connector-curvature="0" />
            <circle
               id="Oval"
               cx="16.783199"
               cy="30.4"
               r="2.4000001" />
            <circle
               id="circle884"
               cx="36.0168"
               cy="30.4"
               r="2.4000001" />
            <path
               d="m 28.6624,36.6624 c -1.2496,1.2496 -3.276,1.2496 -4.5256,0 -0.9376,-0.9376 -2.4568,-0.9376 -3.3944,0 -0.9376,0.9376 -0.9376,2.4568 0,3.3944 3.124,3.124 8.1896,3.124 11.3136,0 0.9376,-0.9376 0.9376,-2.4568 0,-3.3944 -0.9376,-0.9376 -2.456,-0.9368 -3.3936,0 z"
               id="path886"
               inkscape:connector-curvature="0" />
          </g>
        </g>
      </g>
    </g>
  </g>
</svg>
