<?xml version="1.0" encoding="UTF-8" standalone="no"?>
<svg width="217px" height="50px" viewBox="0 0 261 60" version="1.1" xmlns="http://www.w3.org/2000/svg" xmlns:xlink="http://www.w3.org/1999/xlink">
    <!-- Generator: Sketch 3.8.3 (29802) - http://www.bohemiancoding.com/sketch -->
    <title>Group 9</title>
    <desc>Created with Sketch.</desc>
    <defs></defs>
    <g id="Tablet" stroke="none" stroke-width="1" fill="none" fill-rule="evenodd">
        <g id="iPad-Portrait-Copy" transform="translate(-15.000000, -7.000000)" fill="#3F4854">
            <g id="Group-9" transform="translate(15.000000, 7.000000)">
                <text id="Watch-Me-Grow" font-family="Montserrat-Bold, Montserrat" font-size="24" font-weight="bold">
                    <tspan x="67" y="42">Watch Me Grow</tspan>
                </text>
                <g id="noun_235227">
                    <g id="Group">
                        <path d="M44.5016,16.2984 C40.2496,12.0464 34.8736,9.6104 29.3304,8.9744 C28.468,7.7272 28.5864,6.0072 29.6968,4.8968 C30.6344,3.9592 30.6344,2.44 29.6968,1.5024 C28.7592,0.5648 27.24,0.5648 26.3024,1.5024 C24.2944,3.5104 23.584,6.32 24.1584,8.9016 C18.3728,9.4072 12.7256,11.8696 8.2976,16.2976 C-1.7,26.2952 -1.7,42.504 8.2976,52.5016 C18.2952,62.4992 34.504,62.4992 44.5016,52.5016 C54.4992,42.5048 54.4992,26.2952 44.5016,16.2984 L44.5016,16.2984 Z M39.9768,47.9768 C32.4784,55.4752 20.3216,55.4752 12.824,47.9768 C5.3256,40.4784 5.3256,28.3216 12.824,20.824 C20.3224,13.3256 32.4792,13.3256 39.9768,20.824 C47.4744,28.3216 47.4744,40.4784 39.9768,47.9768 L39.9768,47.9768 Z" id="Shape"></path>
                        <circle id="Oval" cx="16.7832" cy="30.4" r="2.4"></circle>
                        <circle id="Oval" cx="36.0168" cy="30.4" r="2.4"></circle>
                        <path d="M28.6624,36.6624 C27.4128,37.912 25.3864,37.912 24.1368,36.6624 C23.1992,35.7248 21.68,35.7248 20.7424,36.6624 C19.8048,37.6 19.8048,39.1192 20.7424,40.0568 C23.8664,43.1808 28.932,43.1808 32.056,40.0568 C32.9936,39.1192 32.9936,37.6 32.056,36.6624 C31.1184,35.7248 29.6,35.7256 28.6624,36.6624 L28.6624,36.6624 Z" id="Shape"></path>
                    </g>
                </g>
            </g>
        </g>
    </g>
</svg>
