<?xml version="1.0" encoding="UTF-8" standalone="no"?>
<svg width="193px" height="37px" viewBox="0 0 193 37" version="1.1" xmlns="http://www.w3.org/2000/svg" xmlns:xlink="http://www.w3.org/1999/xlink">
    <!-- Generator: Sketch 3.8.3 (29802) - http://www.bohemiancoding.com/sketch -->
    <title>share twitter</title>
    <desc>Created with Sketch.</desc>
    <defs>
        <rect id="path-1" x="0" y="0" width="193" height="37" rx="18.5"></rect>
        <mask id="mask-2" maskContentUnits="userSpaceOnUse" maskUnits="objectBoundingBox" x="0" y="0" width="193" height="37" fill="white">
            <use xlink:href="#path-1"></use>
        </mask>
    </defs>
    <g id="Page-1" stroke="none" stroke-width="1" fill="none" fill-rule="evenodd" opacity="0.949999988">
        <g id="iPad-Portrait" transform="translate(-394.000000, -732.000000)">
            <g id="share-twitter" transform="translate(394.000000, 732.000000)">
                <use id="Rectangle-39" stroke="#FFFFFF" mask="url(#mask-2)" stroke-width="2" opacity="0.439999998" xlink:href="#path-1"></use>
                <g id="Group-7" transform="translate(22.000000, 12.000000)" fill="#FFFFFF">
                    <text id="SHARE-ON-TWITTER" font-family="Montserrat-Regular, Montserrat" font-size="12" font-weight="normal">
                        <tspan x="25" y="12">SHARE ON TWITTER</tspan>
                    </text>
                    <path d="M9.39682974,12.85846 C8.04203883,12.3817963 7.18581098,11.1530631 7.28335593,9.80781211 L7.31587091,9.28877827 L6.77395454,9.35233343 C4.80137898,9.59596156 3.07808494,10.4221787 1.61491076,11.8097998 L0.899581163,12.4983141 L0.7153296,11.9898727 C0.325149818,10.8564723 0.574431345,9.65951673 1.38730589,8.85448465 C1.82083898,8.4095985 1.72329404,8.34604333 0.975449454,8.61085652 C0.7153296,8.69559674 0.487724727,8.7591519 0.466048073,8.72737432 C0.390179782,8.65322663 0.650299636,7.68930664 0.856227854,7.30797565 C1.13802436,6.77834928 1.71245571,6.25931544 2.34107869,5.95213215 L2.87215673,5.70850402 L2.24353375,5.69791149 C1.63658742,5.69791149 1.61491076,5.68731897 1.67994073,5.46487589 C1.89670727,4.77636161 2.75293513,4.04547723 3.70670793,3.7277014 L4.37868422,3.50525833 L3.79341454,3.16629745 C2.92634836,2.6790412 1.9075456,2.40363548 0.888742836,2.38245043 C0.401018109,2.3718579 0,2.32948779 0,2.29771021 C0,2.19178494 1.32227593,1.5986034 2.09179716,1.3655678 C4.40036087,0.677053525 7.14245767,0.973644291 9.20173985,2.14941483 C10.664914,2.98622449 12.1280882,4.64925128 12.8109028,6.25931544 C13.179406,7.11731016 13.5479091,8.68500421 13.5479091,9.43707365 C13.5479091,9.92432991 13.5804241,9.98788507 14.1873704,10.5704741 C14.5450352,10.909435 14.8810233,11.2801734 14.9460533,11.3860987 C15.0544366,11.5873567 15.0435983,11.5873567 14.4908436,11.4072837 C13.5695857,11.0895079 13.4395258,11.131878 13.8947356,11.6085418 C14.2307237,11.9475026 14.6317418,12.5618692 14.6317418,12.7419422 C14.6317418,12.7737198 14.4691669,12.7207571 14.2849153,12.6254244 C14.0898255,12.5194991 13.6562924,12.3606112 13.3311425,12.2652785 L12.7458729,12.0852055 L12.2147948,12.4347589 C11.92216,12.6254244 11.5103036,12.8372749 11.293537,12.9008301 C10.7407823,13.0491255 9.8953928,13.0279404 9.39682974,12.85846 L9.39682974,12.85846 Z" id="Shape" transform="translate(7.500000, 7.000000) scale(-1, 1) rotate(-180.000000) translate(-7.500000, -7.000000) "></path>
                </g>
            </g>
        </g>
    </g>
</svg>