<?xml version="1.0" encoding="UTF-8" standalone="no"?>
<svg width="193px" height="37px" viewBox="0 0 193 37" version="1.1" xmlns="http://www.w3.org/2000/svg" xmlns:xlink="http://www.w3.org/1999/xlink">
    <!-- Generator: Sketch 3.8.3 (29802) - http://www.bohemiancoding.com/sketch -->
    <title>share facebook</title>
    <desc>Created with Sketch.</desc>
    <defs>
        <rect id="path-1" x="0" y="0" width="193" height="37" rx="18.5"></rect>
        <mask id="mask-2" maskContentUnits="userSpaceOnUse" maskUnits="objectBoundingBox" x="0" y="0" width="193" height="37" fill="white">
            <use xlink:href="#path-1"></use>
        </mask>
        <rect id="path-3" x="0" y="0" width="14" height="14" rx="1"></rect>
        <mask id="mask-4" maskContentUnits="userSpaceOnUse" maskUnits="objectBoundingBox" x="0" y="0" width="14" height="14" fill="white">
            <use xlink:href="#path-3"></use>
        </mask>
    </defs>
    <g id="Page-1" stroke="none" stroke-width="1" fill="none" fill-rule="evenodd">
        <g id="iPad-Portrait" transform="translate(-182.000000, -732.000000)">
            <g id="share-facebook" transform="translate(182.000000, 732.000000)">
                <g id="Group-Copy" opacity="0.949999988">
                    <text id="SHARE-ON-FACEBOOK" font-family="Montserrat-Regular, Montserrat" font-size="12" font-weight="normal" fill="#FFFFFF">
                        <tspan x="39" y="24">SHARE ON FACEBOOK</tspan>
                    </text>
                    <use id="Rectangle-39" stroke="#FFFFFF" mask="url(#mask-2)" stroke-width="2" opacity="0.439999998" xlink:href="#path-1"></use>
                </g>
                <g id="Group-4" transform="translate(15.000000, 12.000000)">
                    <use id="Rectangle-81" stroke="#FFFFFF" mask="url(#mask-4)" stroke-width="2" stroke-linejoin="round" xlink:href="#path-3"></use>
                    <path d="M6.32920061,14 L6.32920061,7.99953163 L5,7.99953163 L5,5.93165629 L6.32920061,5.93165629 L6.32920061,4.69011143 C6.32920061,3.00314202 7.07975036,2 9.21215104,2 L10.9874343,2 L10.9874343,4.06810952 L9.8777566,4.06810952 C9.04766592,4.06810952 8.99275377,4.35709686 8.99275377,4.89643059 L8.989738,5.9314221 L11,5.9314221 L10.7647699,7.99929744 L8.989738,7.99929744 L8.989738,14 L6.32920061,14 Z" id="Shape" fill="#FFFFFF"></path>
                </g>
            </g>
        </g>
    </g>
</svg>